<svg xmlns="http://www.w3.org/2000/svg" viewBox="0 0 60 60"><defs><style>.cls-1{fill:#31445a;fill-rule:evenodd}</style></defs><g id="レイヤー"><path class="cls-1" d="M30 24.26A5.74 5.74 0 1035.74 30 5.74 5.74 0 0030 24.26z"/><path class="cls-1" d="M30 .34A29.66 29.66 0 1059.66 30 29.66 29.66 0 0030 .34zM47.11 37.1a12.88 12.88 0 01-.8 4.17 8.85 8.85 0 01-5 5 12.88 12.88 0 01-4.17.8c-1.84.08-2.43.1-7.1.1s-5.26 0-7.1-.1a12.88 12.88 0 01-4.17-.8 8.85 8.85 0 01-5-5 12.88 12.88 0 01-.8-4.17c-.08-1.84-.1-2.43-.1-7.1s0-5.26.1-7.1a12.88 12.88 0 01.8-4.17 8.85 8.85 0 015-5 12.88 12.88 0 014.17-.8c1.84-.08 2.43-.1 7.1-.1s5.26 0 7.1.1a12.88 12.88 0 014.17.8 8.85 8.85 0 015 5 12.88 12.88 0 01.8 4.17c.08 1.84.1 2.43.1 7.1s-.02 5.26-.1 7.1z"/><path class="cls-1" d="M43.42 19.85a5.72 5.72 0 00-3.27-3.27A9.83 9.83 0 0037 16c-1.81-.08-2.36-.1-7-.1s-5.14 0-6.95.1a9.83 9.83 0 00-3.2.59 5.72 5.72 0 00-3.27 3.27 9.83 9.83 0 00-.59 3.2c-.08 1.81-.1 2.35-.1 7s0 5.14.1 7a9.83 9.83 0 00.59 3.2 5.72 5.72 0 003.27 3.27 9.83 9.83 0 003.2.59c1.81.08 2.35.1 7 .1s5.14 0 7-.1a9.83 9.83 0 003.2-.59 5.72 5.72 0 003.27-3.27A9.83 9.83 0 0044 37c.08-1.81.1-2.35.1-7s0-5.14-.1-6.95a9.83 9.83 0 00-.58-3.2zM30 38.84A8.84 8.84 0 1138.84 30 8.84 8.84 0 0130 38.84zm9.19-16a2.07 2.07 0 112.06-2.07 2.07 2.07 0 01-2.06 2.11z"/></g></svg>