<svg xmlns="http://www.w3.org/2000/svg" viewBox="0 0 60 60"><path d="M30 0a30 30 0 1030 30A30 30 0 0030 0zm15.68 24.5v.95c0 9.78-7.46 21.05-21.1 21.05a21.1 21.1 0 01-11.37-3.32 15.07 15.07 0 0011-3.07A7.39 7.39 0 0117.29 35a7.89 7.89 0 001.39.13 7.34 7.34 0 001.95-.26 7.41 7.41 0 01-5.95-7.25v-.09a7.49 7.49 0 003.36.92 7.41 7.41 0 01-2.29-9.88A21.06 21.06 0 0031 26.28a7.74 7.74 0 01-.19-1.69 7.43 7.43 0 0112.83-5.06 14.83 14.83 0 004.71-1.79 7.42 7.42 0 01-3.26 4.09 14.69 14.69 0 004.25-1.16 15.09 15.09 0 01-3.66 3.83z" fill="#31445a" fill-rule="evenodd"/></svg>