<svg xmlns="http://www.w3.org/2000/svg" viewBox="0 0 140 30"><path d="M27.29 8.01v8.42l-8.08-8.38-.04-.04h-1.06V22h2.9v-8.33L29 21.96l.04.04h1.15V8.01h-2.9zM36.95 8h2.89v14h-2.89zm15.81 4l1.82 4.87h-3.73zm-1.48-4L46 21.82l-.06.18H49l.79-2.11h5.81l.8 2.11h3.09L54.13 8.09v-.08zm23.38.01v8.42l-8.08-8.38-.04-.04h-1.06V22h2.9v-8.33l7.99 8.29.04.04h1.15V8.01h-2.9zm8.9 0v2.83h4.41V22h2.89V10.84h4.42V8.01H83.56zM101.35 8h2.89v14h-2.89zm18.52 9.93a3.63 3.63 0 01-2.64 1.07 3.7 3.7 0 01-2.79-1.09 4.06 4.06 0 01-1.06-2.91 4 4 0 011.05-2.84 3.69 3.69 0 012.78-1.16 3.78 3.78 0 012.66 1.07l.09.07 1.93-2.14-.1-.08A6.25 6.25 0 00117.21 8a6.42 6.42 0 00-4.79 2 6.93 6.93 0 00-1.94 5 7 7 0 001.93 5 6.52 6.52 0 004.8 2 6.28 6.28 0 004.58-1.86l.1-.09-1.89-2.2z" fill="#595757"/><path fill="none" d="M0 0h140v30H0z"/></svg>