<svg xmlns="http://www.w3.org/2000/svg" viewBox="0 0 120 30"><defs><style>.cls-1{fill:#9e9e9f}</style></defs><g id="レイヤー"><path class="cls-1" d="M20.94 9.5h3.54l4.84 7.89V9.5h3.51v11.3h-3.51l-4.87-7.87v7.87h-3.51V9.5zm30.89 1.16h3.4v1.54h1.86v1.09h-1.86v7.51h-3.4v-7.51h-1.85V12.2h1.85v-1.54zm-17.06 2.63h3.41v7.51h-3.41zm0-3.79h3.41v2.31h-3.41zM95.69 17v1.57c0 1.21-.69 1.71-1.37 1.71s-1.4-.5-1.4-1.71v-3.18c0-1.2.7-1.69 1.4-1.69s1.37.49 1.37 1.69V17zm-1.34-4.22c-2.75 0-5 1.89-5 4.22s2.24 4.23 5 4.23 5-1.89 5-4.23-2.27-4.22-5-4.22zM84.91 9.5h3.36v11.3H84.9v-.44a4 4 0 01-6.2-3.42A4.09 4.09 0 0183 13a4.14 4.14 0 011.9.69zm0 7.5v-1.32a1.33 1.33 0 10-2.65 0v2.67a1.33 1.33 0 102.65 0zm-38.78-4.06A3.67 3.67 0 0150 16.72v4.08h-3.42v-4.93A1.51 1.51 0 0045 14.48a1.54 1.54 0 00-1.59 1.39v4.93h-3.36v-7.51h3.39v.79a4.12 4.12 0 012.69-1.14zm27.64 0a3.67 3.67 0 013.81 3.78v4.08h-3.39v-4.93a1.49 1.49 0 00-1.54-1.39 1.57 1.57 0 00-1.6 1.39v4.93h-3.39v-7.51h3.39v.79a4.15 4.15 0 012.72-1.14zM60.23 15.9a3.05 3.05 0 01.22-1.46 1.38 1.38 0 011.21-.68 1.4 1.4 0 011.21.68 3.08 3.08 0 01.2 1.46zm2.83 2.28a3.59 3.59 0 010 .46c0 1.38-.93 1.67-1.41 1.67s-1.43-.29-1.43-1.67v-1.56h6.41c0-2.33-2.25-4.26-5-4.26s-5 1.89-5 4.23 2.23 4.22 5 4.22a5 5 0 004.83-3.09zm36.77-7.83c.57 0 .82.2.82.55a.53.53 0 01-.4.52l.4.85h-.51l-.35-.8h-.22v.8h-.49v-1.92zm0-.75a1.73 1.73 0 101.73 1.74A1.75 1.75 0 0099.8 9.6zm1.4 1.74a1.37 1.37 0 01-1.4 1.39 1.39 1.39 0 01-1.4-1.39 1.41 1.41 0 011.4-1.42 1.4 1.4 0 011.37 1.42zm-1.63-.14h.22c.25 0 .38-.08.38-.27s-.13-.29-.41-.29h-.19z"/><path class="cls-1" d="M24 27.16c-7.65 0-12.77-5.38-12.77-12 0-6.55 5.12-12 12.76-12H96c7.61 0 12.73 5.47 12.73 12 0 6.6-5.12 12-12.76 12zm0-21c-6.07 0-9.78 4.07-9.78 9.06 0 5 3.68 9.08 9.78 9.08h72c6.09 0 9.79-4.07 9.79-9.08 0-5-3.73-9-9.79-9.06z"/><path fill="none" d="M0 0h120v30H0z"/></g></svg>