<svg xmlns="http://www.w3.org/2000/svg" viewBox="0 0 212 30"><defs><style>.cls-1{fill:#595757}</style></defs><g id="レイヤー"><path class="cls-1" d="M4.07 10.22H1v-2.6h9.47v2.6H7.39v10.53H4.07zM12 6.64h3.13v5.76a3.5 3.5 0 013-1.68c2.47 0 3.46 1.89 3.46 3.92v6.11h-3.04V16c0-1.84-.59-2.46-1.44-2.46-1.29 0-1.95 1-1.95 3.06v4.14H12zm14.07 8.28c.07-1.13.61-2.05 1.74-2.05s1.74.92 1.74 2.05zm6.29 1.92v-.62c0-2.92-1.21-5.5-4.57-5.5-2.82 0-4.85 1.89-4.85 5.12A4.92 4.92 0 0028.21 21a8.35 8.35 0 003.32-.62V18a5.56 5.56 0 01-2.77.75c-1.53 0-2.48-.53-2.66-1.88zm10.52-6.74h.9c1.2 0 2.16.44 2.16 1.77s-1 1.81-2.16 1.81h-.9zm-3.5 10.65h3.5v-4.59h1.35c3.27 0 5.21-1.58 5.21-4.23 0-2.95-1.88-4.31-5.88-4.31h-4.18zm15.89-2.15c-1.44 0-2-1.29-2-2.74s.6-2.77 2-2.77 2 1.3 2 2.77-.56 2.74-2 2.74zm0 2.37c3 0 5.27-1.88 5.27-5.11a4.92 4.92 0 00-5.27-5.14A4.92 4.92 0 0050 15.86c0 3.23 2.28 5.14 5.27 5.14zm6.78-14.33h3.13v8.43L67.83 11h3.42l-3.14 4.49 3.4 5.31h-3.79l-2.5-4.85v4.85h-3.17zm12.81 8.28c.06-1.13.6-2.05 1.73-2.05s1.74.92 1.74 2.05zm6.29 1.92v-.62c0-2.92-1.22-5.5-4.57-5.5-2.82 0-4.86 1.89-4.86 5.12A4.92 4.92 0 0077 21a8.36 8.36 0 003.33-.62V18a5.59 5.59 0 01-2.77.75c-1.53 0-2.49-.53-2.66-1.88zM82.74 11h2.71v1.81a3.24 3.24 0 013.15-2 2.72 2.72 0 012.7 1.89 3.32 3.32 0 013.06-1.89c2.48 0 3 1.6 3 4.26v5.77h-3v-5.36c0-1.11-.34-1.93-1.19-1.93-1.06 0-1.69 1-1.69 3.06v4.14h-3v-5.27c0-1.11-.35-1.93-1.2-1.93-1.06 0-1.68 1-1.68 3.06v4.14h-3zm21.43 7.6c-1.45 0-2-1.29-2-2.74s.59-2.77 2-2.77 2 1.3 2 2.77-.56 2.74-2 2.74zm0 2.37c3 0 5.27-1.88 5.27-5.11a5.27 5.27 0 00-10.54 0c0 3.23 2.28 5.14 5.27 5.14zm6.69-9.97h2.86v1.81a3.41 3.41 0 013.31-2c2.47 0 3.46 1.89 3.46 3.92v6.11h-3.13V16c0-1.84-.59-2.46-1.45-2.46-1.28 0-1.94 1-1.94 3.06v4.14h-3.14zm27.21 9.45a12.71 12.71 0 01-3.6.52c-3.24 0-7-1.76-7-6.73 0-4.57 3-6.84 7-6.84a11.88 11.88 0 013.6.67l-.26 2.84a6 6 0 00-3.17-.92c-2.29 0-3.79 1.81-3.79 4.25a3.86 3.86 0 004 4.14 7.91 7.91 0 003-.68zm6.33-1.85c-1.44 0-2-1.29-2-2.74s.6-2.77 2-2.77 2 1.3 2 2.77-.56 2.74-2 2.74zm0 2.37c3 0 5.27-1.88 5.27-5.11a5.27 5.27 0 00-10.54 0c0 3.23 2.28 5.14 5.27 5.14zm6.74-9.97h2.71v1.81a3.24 3.24 0 013.15-2 2.7 2.7 0 012.69 1.89 3.34 3.34 0 013.06-1.89c2.49 0 3.05 1.6 3.05 4.26v5.77h-3v-5.36c0-1.11-.35-1.93-1.19-1.93-1.06 0-1.69 1-1.69 3.06v4.14h-3v-5.27c0-1.11-.35-1.93-1.19-1.93-1.06 0-1.69 1-1.69 3.06v4.14h-3zm23.54 4.75c0 1.56-.71 2.63-1.89 2.63s-1.92-1.07-1.92-2.5.77-2.56 1.92-2.56 1.89 1.13 1.89 2.43zm-6.94 9h3.13v-5.38a3.07 3.07 0 002.87 1.6c2.69 0 4.14-2.4 4.14-5.3 0-2.37-1.38-4.95-3.88-4.95a3.54 3.54 0 00-3.38 2V11h-2.89zm14.09-7.11c0-.94.84-1.29 1.9-1.29h1.32a2.15 2.15 0 01-1.93 2.32c-.73.05-1.29-.35-1.29-1.03zm6.32 3.11a12.85 12.85 0 01-.18-2.31v-3.65c0-3-2-4.07-4.31-4.07a8.73 8.73 0 00-3.62.7l.05 2.3A5.51 5.51 0 01183 13c1.13 0 2.05.36 2.07 1.69a9.11 9.11 0 00-1.46-.13c-1.67 0-4.68.36-4.68 3.35 0 2.12 1.6 3.08 3.39 3.08a3.06 3.06 0 002.87-1.76c0 .5 0 1 .07 1.54zM190 11h2.85v1.81a3.41 3.41 0 013.3-2c2.47 0 3.47 1.89 3.47 3.92v6.11h-3.14V16c0-1.84-.59-2.46-1.44-2.46-1.29 0-2 1-2 3.06v4.14H190zm11.5 11.12a3.51 3.51 0 001.24.21 1.62 1.62 0 001.58-1.33l-3.67-10H204l2 6.34 1.87-6.34H211l-3.32 9.12c-.89 2.46-1.57 4.85-4.44 4.85a8.58 8.58 0 01-2-.22z"/><path class="cls-1" d="M74.86 14.92c.06-1.13.6-2.05 1.73-2.05s1.74.92 1.74 2.05zm6.29 1.92v-.62c0-2.92-1.22-5.5-4.57-5.5-2.82 0-4.86 1.89-4.86 5.12A4.92 4.92 0 0077 21a8.36 8.36 0 003.33-.62V18a5.59 5.59 0 01-2.77.75c-1.53 0-2.49-.53-2.66-1.88zm-7-6.91l5.3-2.34-.89-2.23-5.11 2.76z"/><path fill="none" d="M0 0h212v30H0z"/></g></svg>